#N canvas -2409 -6 2400 1236 12;
#X obj 365 503 print x1;
#X obj 355 170 noteout 1;
#X obj 505 85 notein;
#X obj 669 188 noteout 17;
#X obj 556 496 print New;
#X obj 565 257 bng 15 250 50 0 empty empty empty 17 7 0 10 -262144
-1 -1;
#X text 814 64 Splits incoming MIDI (set to controller then assigns
it to channel 1 in port 1 and port 2 Set up two virtual ports and everything
after 16 will be in port 2 (eg. 17 = ch1 port2). You can add ports
if desired in increments of 16 channels per port.;
#X connect 2 0 0 0;
#X connect 2 0 1 0;
#X connect 2 0 3 0;
#X connect 2 1 0 0;
#X connect 2 1 1 1;
#X connect 2 1 3 1;
#X connect 2 2 5 0;
#X connect 5 0 4 0;
