#N canvas 952 0 958 966 12;
#X floatatom 238 87 5 0 0 0 - - -;
#X floatatom 51 175 5 0 0 0 - - -;
#X obj 41 44 adc~;
#X obj 20 257 print pitch;
#X text 13 26 FFT Package;
#X obj 32 98 fiddle~ 2048;
#X obj 355 574 print BassHit;
#X obj 432 607 print MidRange;
#X obj 515 653 print RimShot;
#X text 459 27 Midi notes not being read. Noteout produces delay;
#X floatatom 18 285 5 0 0 0 - - -;
#X obj 605 -319 t b f;
#X obj 617 -352 delay 5 1 msec;
#X obj 615 -309 t b f;
#X obj 627 -342 delay 5 1 msec;
#X obj 58 452 delay 5 1 msec;
#X obj 73 516 t b f;
#X text 402 137 Filter;
#X text 253 493 MIDI out;
#X text 12 422 Clear value;
#X obj 328 498 noteout 1;
#X obj 325 358 select 1;
#X obj 421 358 select 1;
#X obj 494 359 select 1;
#X obj 780 545 100;
#X floatatom 818 434 5 0 0 0 - - -;
#X obj 806 409 f;
#X obj 814 467 select 1;
#X obj 809 518 t b f;
#X obj 809 583 noteout 4;
#X obj 790 250 delay 5 1 msec;
#X obj 805 314 t b f;
#X text 744 220 Clear value;
#X obj 508 404 t b f;
#X obj 426 405 t b f;
#X obj 331 403 t b f;
#X obj 317 455 float 36;
#X obj 410 454 float 37;
#X obj 504 450 float 38;
#X obj 411 495 noteout 1;
#X obj 506 495 noteout 1;
#X text 217 455 C1 \, C#1 \, D1;
#X text 218 56 Volume;
#X obj 417 176 expr $f1 < 45 && $f2>70 \; $f1 < 60 && $f1 > 45 && $f2>70
\; $f1 < 80 && $f1 > 60 && $f2>70 \;;
#X connect 0 0 43 1;
#X connect 1 0 20 1;
#X connect 1 0 39 1;
#X connect 1 0 40 1;
#X connect 2 0 5 0;
#X connect 2 1 5 0;
#X connect 5 0 3 0;
#X connect 5 0 10 0;
#X connect 5 0 15 0;
#X connect 5 0 43 0;
#X connect 5 2 1 0;
#X connect 5 3 0 0;
#X connect 12 0 11 0;
#X connect 14 0 13 0;
#X connect 15 0 16 0;
#X connect 16 1 10 0;
#X connect 21 0 35 0;
#X connect 22 0 34 0;
#X connect 23 0 33 0;
#X connect 24 0 29 0;
#X connect 25 0 27 0;
#X connect 26 0 25 0;
#X connect 27 0 28 0;
#X connect 28 0 24 0;
#X connect 30 0 31 0;
#X connect 31 1 25 0;
#X connect 33 0 38 0;
#X connect 34 0 37 0;
#X connect 35 0 36 0;
#X connect 36 0 20 0;
#X connect 37 0 39 0;
#X connect 38 0 40 0;
#X connect 43 0 6 0;
#X connect 43 0 21 0;
#X connect 43 1 7 0;
#X connect 43 1 22 0;
#X connect 43 2 23 0;
#X connect 43 2 8 0;
